<?xml version="1.0" encoding="UTF-8"?>
<!DOCTYPE svg PUBLIC "-//W3C//DTD SVG 1.1//EN" "http://www.w3.org/Graphics/SVG/1.1/DTD/svg11.dtd">
<!-- Creator: CorelDRAW -->
<svg xmlns="http://www.w3.org/2000/svg" xml:space="preserve" width="4in" height="1.666in" version="1.1" style="shape-rendering:geometricPrecision; text-rendering:geometricPrecision; image-rendering:optimizeQuality; fill-rule:evenodd; clip-rule:evenodd"
viewBox="0 0 4000 1666"
 xmlns:xlink="http://www.w3.org/1999/xlink"
 xmlns:xodm="http://www.corel.com/coreldraw/odm/2003">
 <defs>
  <style type="text/css">
   <![CDATA[
    .fil3 {fill:none}
    .fil1 {fill:#201E1E}
    .fil0 {fill:#201E1E;fill-rule:nonzero}
    .fil2 {fill:#201E1E;fill-rule:nonzero}
    .fil4 {fill:url(#id0)}
    .fil6 {fill:url(#id1)}
    .fil7 {fill:url(#id2)}
    .fil8 {fill:url(#id3)}
    .fil5 {fill:url(#id4)}
   ]]>
  </style>
  <linearGradient id="id0" gradientUnits="userSpaceOnUse" x1="2208.44" y1="84.24" x2="2032.97" y2="557.15">
   <stop offset="0" style="stop-opacity:1; stop-color:#572EFF"/>
   <stop offset="0.501961" style="stop-opacity:1; stop-color:#364CA0"/>
   <stop offset="1" style="stop-opacity:1; stop-color:#572EFF"/>
  </linearGradient>
  <linearGradient id="id1" gradientUnits="userSpaceOnUse" xlink:href="#id0" x1="1961.89" y1="234.38" x2="1781.59" y2="551.55">
  </linearGradient>
  <linearGradient id="id2" gradientUnits="userSpaceOnUse" x1="1727.47" y1="571.8" x2="1797.8" y2="342.18">
   <stop offset="0" style="stop-opacity:1; stop-color:#6CC3F4"/>
   <stop offset="0.168627" style="stop-opacity:1; stop-color:#80ABE9"/>
   <stop offset="0.529412" style="stop-opacity:1; stop-color:#B26DCD"/>
   <stop offset="1" style="stop-opacity:1; stop-color:#FA15A6"/>
  </linearGradient>
  <linearGradient id="id3" gradientUnits="userSpaceOnUse" xlink:href="#id2" x1="2027.09" y1="220.96" x2="1979.09" y2="571.53">
  </linearGradient>
  <linearGradient id="id4" gradientUnits="userSpaceOnUse" xlink:href="#id2" x1="2257.84" y1="57.28" x2="2215.77" y2="583.57">
  </linearGradient>
 </defs>
 <g id="Layer_x0020_1">
  <metadata id="CorelCorpID_0Corel-Layer"/>
  <g id="_2289406080048">
   <g>
    <polygon class="fil0" points="918.7,1204.8 864.87,1204.8 864.87,829.13 738,829.13 738,784.37 1045.73,784.37 1045.73,829.13 918.7,829.13 "/>
    <polygon class="fil0" points="1464.78,1204.8 1216.14,1204.8 1216.14,784.37 1458.44,784.37 1458.44,829.13 1269.37,829.13 1269.37,961.2 1428.99,961.2 1428.99,1006.75 1269.37,1006.75 1269.37,1159.33 1464.78,1159.33 "/>
    <path class="fil0" d="M1699.48 1204.8l-50.74 0 0 -420.44 55.25 0 151.81 263.96 45.48 87.23 2.69 0c-1.3,-21.38 -2.69,-43.47 -4.16,-66.39 -1.49,-22.76 -2.26,-45.31 -2.26,-67.46l0 -217.35 50.59 0 0 420.44 -55.15 0 -152.45 -264.69 -45.54 -86.59 -2.61 0c1.76,21.46 3.39,43.15 4.87,65.14 1.46,21.93 2.24,44.08 2.24,66.39l0 219.75z"/>
    <path class="fil0" d="M2292.42 1204.8l-133.99 0 0 -420.44 124.92 0c21.38,0 40.99,1.94 58.72,5.65 17.67,3.87 32.84,9.92 45.55,18.04 12.56,8.13 22.39,18.68 29.45,31.69 7.04,13.08 10.53,28.81 10.53,47.09 0,20.92 -5.27,39.9 -15.72,56.85 -10.47,16.82 -25.72,28.52 -45.87,34.94l0 2.56c25.72,4.64 46.4,15.25 62.2,31.91 15.89,16.65 23.78,39.58 23.78,68.63 0,20.52 -3.87,38.41 -11.62,53.84 -7.59,15.41 -18.5,28.28 -32.68,38.49 -14.1,10.31 -30.91,17.98 -50.59,23 -19.59,5.19 -41.2,7.75 -64.68,7.75zm-80.87 -378.15l0 136.48 62.28 0c35.85,0 61.73,-6.2 77.46,-18.6 15.88,-12.39 23.85,-29.21 23.85,-50.5 0,-24.39 -8.29,-41.74 -24.71,-52.06 -16.5,-10.21 -41.13,-15.33 -74.04,-15.33l-64.84 0zm0 177.54l0 158.23 73.13 0c36.33,0 64.52,-6.66 84.65,-20.04 19.99,-13.48 30.06,-34.41 30.06,-62.61 0,-26.01 -9.84,-45.07 -29.51,-57.3 -19.61,-12.18 -48.03,-18.28 -85.2,-18.28l-73.13 0z"/>
    <polygon class="fil0" points="2878.87,1204.8 2630.15,1204.8 2630.15,784.37 2872.42,784.37 2872.42,829.13 2683.43,829.13 2683.43,961.2 2843,961.2 2843,1006.75 2683.43,1006.75 2683.43,1159.33 2878.87,1159.33 "/>
    <polygon class="fil0" points="3300,1204.8 3062.82,1204.8 3062.82,784.37 3116.04,784.37 3116.04,1159.33 3300,1159.33 "/>
   </g>
   <g>
    <polygon class="fil1" points="187.29,425.49 187.29,1542.23 3812.72,1542.23 3812.72,425.49 2469.54,425.49 2469.54,342.05 3896.09,342.05 3896.09,1625.61 103.91,1625.61 103.91,342.05 1530.41,342.05 1530.41,425.49 "/>
   </g>
   <polygon class="fil2" points="3876.33,1605.86 123.67,1605.86 123.67,361.8 1510.66,361.8 1510.66,405.74 167.54,405.74 167.54,1561.98 3832.47,1561.98 3832.47,405.74 2489.29,405.74 2489.29,361.8 3876.33,361.8 "/>
   <g>
    <polygon class="fil0" points="918.7,1204.8 864.87,1204.8 864.87,829.13 738,829.13 738,784.37 1045.73,784.37 1045.73,829.13 918.7,829.13 "/>
    <polygon class="fil0" points="1464.78,1204.8 1216.14,1204.8 1216.14,784.37 1458.44,784.37 1458.44,829.13 1269.37,829.13 1269.37,961.2 1428.99,961.2 1428.99,1006.75 1269.37,1006.75 1269.37,1159.33 1464.78,1159.33 "/>
    <path class="fil0" d="M1699.48 1204.8l-50.74 0 0 -420.44 55.25 0 151.81 263.96 45.48 87.23 2.69 0c-1.3,-21.38 -2.69,-43.47 -4.16,-66.39 -1.49,-22.76 -2.26,-45.31 -2.26,-67.46l0 -217.35 50.59 0 0 420.44 -55.15 0 -152.45 -264.69 -45.54 -86.59 -2.61 0c1.76,21.46 3.39,43.15 4.87,65.14 1.46,21.93 2.24,44.08 2.24,66.39l0 219.75z"/>
    <path class="fil0" d="M2292.42 1204.8l-133.99 0 0 -420.44 124.92 0c21.38,0 40.99,1.94 58.72,5.65 17.67,3.87 32.84,9.92 45.55,18.04 12.56,8.13 22.39,18.68 29.45,31.69 7.04,13.08 10.53,28.81 10.53,47.09 0,20.92 -5.27,39.9 -15.72,56.85 -10.47,16.82 -25.72,28.52 -45.87,34.94l0 2.56c25.72,4.64 46.4,15.25 62.2,31.91 15.89,16.65 23.78,39.58 23.78,68.63 0,20.52 -3.87,38.41 -11.62,53.84 -7.59,15.41 -18.5,28.28 -32.68,38.49 -14.1,10.31 -30.91,17.98 -50.59,23 -19.59,5.19 -41.2,7.75 -64.68,7.75zm-80.87 -378.15l0 136.48 62.28 0c35.85,0 61.73,-6.2 77.46,-18.6 15.88,-12.39 23.85,-29.21 23.85,-50.5 0,-24.39 -8.29,-41.74 -24.71,-52.06 -16.5,-10.21 -41.13,-15.33 -74.04,-15.33l-64.84 0zm0 177.54l0 158.23 73.13 0c36.33,0 64.52,-6.66 84.65,-20.04 19.99,-13.48 30.06,-34.41 30.06,-62.61 0,-26.01 -9.84,-45.07 -29.51,-57.3 -19.61,-12.18 -48.03,-18.28 -85.2,-18.28l-73.13 0z"/>
    <polygon class="fil0" points="2878.87,1204.8 2630.15,1204.8 2630.15,784.37 2872.42,784.37 2872.42,829.13 2683.43,829.13 2683.43,961.2 2843,961.2 2843,1006.75 2683.43,1006.75 2683.43,1159.33 2878.87,1159.33 "/>
    <polygon class="fil0" points="3300,1204.8 3062.82,1204.8 3062.82,784.37 3116.04,784.37 3116.04,1159.33 3300,1159.33 "/>
   </g>
   <path class="fil3" d="M2287.94 152.52l41.48 374.5c3.91,32.61 -19.55,62.05 -52.16,65.59 -15.72,2.23 -31.73,-2.13 -44.15,-12.08 -11.91,-10.24 -19.54,-24.55 -21.39,-40.11l-26.55 -238.87 -101.85 289.7 -2.67 0c-13.32,1.17 -26.57,0.14 -39.26,-2.91 -20.13,-4.52 -38.91,-14.44 -54.18,-29 -2.37,-2.2 -4.67,-4.5 -6.87,-6.9l0.03 -0.09c-15.89,-17.46 -26.16,-39.3 -29.48,-62.78l-11.96 -112.32 -1.43 2.65 -112.57 208.01 0.22 2c-31.46,4.07 -63.25,-4.59 -88.29,-24.07 -1.31,-2.66 -3.97,-4.02 -5.33,-5.33 -21.54,-19.48 -35.33,-46.1 -38.81,-74.9l-10.66 -94.98c-3.93,-33.04 20.36,-62.76 53.49,-65.54 15.3,-2.4 30.92,2.01 42.8,12.02 12.74,9.74 20.96,24.22 22.76,40.12l4.19 37.04 112.18 -209.59 2.68 -2.66c0.05,-0 0.09,-0.01 0.14,-0.02l-0.14 -1.3 1.3 0c30.75,-2.99 61.45,6.15 85.63,25.42 2.77,0.97 5.11,2.83 6.69,5.33 20.3,18.56 33.55,43.65 37.46,70.87l4.15 37.22 101.82 -289.74 -0.32 -2.93c31.67,-3.7 63.46,5.43 88.29,25.42l2.66 2.66c4.36,3.65 8.39,7.68 12.03,12.04l-0.1 0.3c15.71,18.4 25.57,41.1 28.19,65.24z"/>
   <g>
    <path class="fil4" d="M2080.67 591.24l2.66 0 102.99 -292.95 73.53 -211.31c-3.64,-4.36 -7.67,-8.39 -12.03,-12.04 -24.76,-21.28 -57.14,-31.41 -89.59,-28.07l-104.35 296.92 -73.53 208.65c25.58,27.81 62.65,42.13 100.31,38.81z"/>
    <path class="fil5" d="M2277.27 592.6c32.61,-3.54 56.07,-32.98 52.16,-65.59l-41.48 -374.49c-2.83,-26.07 -14.1,-50.46 -32.07,-69.56l-10.72 -10.67c-24.83,-19.98 -56.61,-29.12 -88.29,-25.42l54.86 493.54c1.86,15.56 9.48,29.87 21.39,40.12 12.42,9.95 28.43,14.31 44.15,12.08z"/>
    <path class="fil6" d="M1823.85 589.89l113.67 -210.01 77.56 -143.1 -6.65 -6.7c-24.06,-21.61 -56.23,-31.84 -88.28,-28.08l-2.68 2.66 -112.4 210 -77.57 141.8 6.7 5.33c24.44,21.88 57.09,32.12 89.64,28.09z"/>
    <path class="fil7" d="M1825.17 589.89l-24.06 -212.67c-1.8,-15.9 -10.02,-30.38 -22.76,-40.12 -11.87,-10.02 -27.49,-14.42 -42.79,-12.02 -33.14,2.77 -57.43,32.5 -53.5,65.53l10.66 94.98c3.48,28.8 17.26,55.42 38.81,74.9 1.37,1.31 4.03,2.68 5.34,5.34 25.04,19.48 56.82,28.13 88.29,24.07z"/>
    <path class="fil8" d="M2083.33 589.89l-32.11 -287.57c-3.91,-27.22 -17.15,-52.31 -37.46,-70.87 -1.57,-2.51 -3.91,-4.36 -6.69,-5.34 -24.18,-19.27 -54.87,-28.41 -85.63,-25.42l-1.3 0 30.75 288.87c3.58,25.37 15.28,48.83 33.41,66.9 25.75,26.35 62.54,38.81 99.01,33.43z"/>
   </g>
  </g>
 </g>
</svg>
